<svg width="1054" height="1117" viewBox="0 0 1054 1117" fill="none" xmlns="http://www.w3.org/2000/svg">
<path opacity="0.5" d="M318.343 42.6942C198.405 143.217 179.819 333.298 98.5892 473.527C70.3124 522.322 33.7749 565.992 14.7119 620.123C-29.0536 744.026 31.1802 884.572 111.801 982.981C150.245 1029.93 195.149 1072.94 249.478 1092.72C291.258 1107.94 336.056 1108.57 380.033 1108.97L1150.5 1116.9C1236.52 1117.77 1332.1 1114.62 1393.95 1048.21C1436.57 1002.48 1453.89 935.692 1468.58 871.944C1486.64 793.613 1503 708.546 1474.91 633.94C1442.82 548.582 1361.67 500.21 1311.26 426.555C1229.45 307.223 1231.33 126.731 1127.14 31.4664C1078.51 -12.9959 1014.33 -30.4321 951.792 -39.1502C833.892 -55.6089 722.215 -24.5408 606.433 -28.8734C507.464 -32.572 400.447 -26.1259 318.343 42.6942Z" fill="#E7ECFF"/>
</svg>
